<svg width="243" height="170" viewBox="0 0 243 170" fill="none" xmlns="http://www.w3.org/2000/svg">
<rect width="243" height="170" fill="#EF3F6F"/>
<path d="M229.016 58.5691C229.016 58.5691 234.779 66.8212 238.392 69.508L229.016 69.508L229.016 58.5691Z" fill="white"/>
<rect x="104" y="7" width="125.016" height="62.508" fill="white"/>
<rect x="123.534" y="26.5337" width="93.7621" height="4.6881" rx="2.34405" fill="#EF3F6F"/>
<rect x="123.534" y="14.0322" width="93.7621" height="4.6881" rx="2.34405" fill="#EF3F6F"/>
<rect x="134.473" y="49.9744" width="82.8232" height="4.6881" rx="2.34405" fill="#EF3F6F"/>
<rect x="155.569" y="37.4727" width="61.7267" height="4.6881" rx="2.34405" fill="#EF3F6F"/>
<path d="M5 162.508C5 162.508 13.2522 156.746 15.9389 153.132V162.508H5Z" fill="white"/>
<rect x="15.9389" y="100" width="125.016" height="62.508" fill="white"/>
<rect width="46.881" height="4.6881" rx="2.34405" transform="matrix(-1 0 0 1 74.5402 121.096)" fill="#FCC566"/>
<rect width="82.0418" height="4.6881" rx="2.34405" transform="matrix(-1 0 0 1 109.701 108.595)" fill="#FCC566"/>
<rect width="82.0418" height="4.6881" rx="2.34405" transform="matrix(-1 0 0 1 109.701 144.537)" fill="#FCC566"/>
<rect width="67.1961" height="4.6881" rx="2.34405" transform="matrix(-1 0 0 1 94.8553 132.035)" fill="#FCC566"/>
</svg>
