<svg width="100%" height="100%" viewBox="0 0 35 35" fill="none" xmlns="http://www.w3.org/2000/svg">
<path d="M32.4081 0H13.0613C11.6825 0 10.5608 1.12175 10.5608 2.50052V8.36941H12.8434V2.50052C12.8434 2.38038 12.9412 2.28261 13.0613 2.28261H32.4081C32.5282 2.28261 32.626 2.38038 32.626 2.50052V21.8473C32.626 21.9675 32.5282 22.0653 32.4081 22.0653H26.7222V24.3479H32.4081C33.7869 24.3479 34.9086 23.2261 34.9086 21.8473V2.50052C34.9085 1.12175 33.7869 0 32.4081 0Z" fill="white"/>
<path d="M21.9389 10.652H2.59215C1.2133 10.652 0.0915527 11.7737 0.0915527 13.1526V32.4994C0.0916288 33.8782 1.2133 35 2.59215 35H21.9389C23.3178 35 24.4395 33.8782 24.4395 32.4994V13.1526C24.4396 11.7737 23.3177 10.652 21.9389 10.652ZM21.939 32.7173H2.59215C2.47193 32.7173 2.37416 32.6196 2.37416 32.4994V13.1526C2.37416 13.0324 2.47193 12.9346 2.59215 12.9346H21.9389C22.0592 12.9346 22.1569 13.0324 22.1569 13.1526V32.4994H22.157C22.157 32.6196 22.0592 32.7173 21.939 32.7173Z" fill="white"/>
</svg>
