<svg width="255" height="178" viewBox="0 0 255 178" fill="none" xmlns="http://www.w3.org/2000/svg">
<rect width="255" height="178" fill="#EF3F6F"/>
<rect x="180" y="13" width="60" height="30" fill="#3CBDA4"/>
<rect x="15" y="13" width="60" height="30" fill="#3CBDA4"/>
<rect x="18" y="30" width="42" height="4" rx="2" fill="white"/>
<rect x="98" y="13" width="60" height="30" fill="#3CBDA4"/>
<rect x="180" y="70" width="60" height="30" fill="#9883BF"/>
<rect x="15" y="70" width="60" height="30" fill="#9883BF"/>
<path d="M31.6953 79.5625V91H30.25V81.3672L27.3359 82.4297V81.125L31.4688 79.5625H31.6953ZM43.0859 84.4062V86.1406C43.0859 87.0729 43.0026 87.8594 42.8359 88.5C42.6693 89.1406 42.4297 89.6562 42.1172 90.0469C41.8047 90.4375 41.4271 90.7214 40.9844 90.8984C40.5469 91.0703 40.0521 91.1562 39.5 91.1562C39.0625 91.1562 38.6589 91.1016 38.2891 90.9922C37.9193 90.8828 37.5859 90.7083 37.2891 90.4688C36.9974 90.224 36.7474 89.9062 36.5391 89.5156C36.3307 89.125 36.1719 88.651 36.0625 88.0938C35.9531 87.5365 35.8984 86.8854 35.8984 86.1406V84.4062C35.8984 83.474 35.9818 82.6927 36.1484 82.0625C36.3203 81.4323 36.5625 80.9271 36.875 80.5469C37.1875 80.1615 37.5625 79.8854 38 79.7188C38.4427 79.5521 38.9375 79.4688 39.4844 79.4688C39.9271 79.4688 40.3333 79.5234 40.7031 79.6328C41.0781 79.737 41.4115 79.9062 41.7031 80.1406C41.9948 80.3698 42.2422 80.6771 42.4453 81.0625C42.6536 81.4427 42.8125 81.9089 42.9219 82.4609C43.0312 83.013 43.0859 83.6615 43.0859 84.4062ZM41.6328 86.375V84.1641C41.6328 83.6536 41.6016 83.2057 41.5391 82.8203C41.4818 82.4297 41.3958 82.0964 41.2812 81.8203C41.1667 81.5443 41.0208 81.3203 40.8438 81.1484C40.6719 80.9766 40.4714 80.8516 40.2422 80.7734C40.0182 80.6901 39.7656 80.6484 39.4844 80.6484C39.1406 80.6484 38.8359 80.7135 38.5703 80.8438C38.3047 80.9688 38.0807 81.1693 37.8984 81.4453C37.7214 81.7214 37.5859 82.0833 37.4922 82.5312C37.3984 82.9792 37.3516 83.5234 37.3516 84.1641V86.375C37.3516 86.8854 37.3802 87.3359 37.4375 87.7266C37.5 88.1172 37.5911 88.4557 37.7109 88.7422C37.8307 89.0234 37.9766 89.2552 38.1484 89.4375C38.3203 89.6198 38.5182 89.7552 38.7422 89.8438C38.9714 89.9271 39.224 89.9688 39.5 89.9688C39.8542 89.9688 40.1641 89.901 40.4297 89.7656C40.6953 89.6302 40.9167 89.4193 41.0938 89.1328C41.276 88.8411 41.4115 88.4688 41.5 88.0156C41.5885 87.5573 41.6328 87.0104 41.6328 86.375ZM52.0859 84.4062V86.1406C52.0859 87.0729 52.0026 87.8594 51.8359 88.5C51.6693 89.1406 51.4297 89.6562 51.1172 90.0469C50.8047 90.4375 50.4271 90.7214 49.9844 90.8984C49.5469 91.0703 49.0521 91.1562 48.5 91.1562C48.0625 91.1562 47.6589 91.1016 47.2891 90.9922C46.9193 90.8828 46.5859 90.7083 46.2891 90.4688C45.9974 90.224 45.7474 89.9062 45.5391 89.5156C45.3307 89.125 45.1719 88.651 45.0625 88.0938C44.9531 87.5365 44.8984 86.8854 44.8984 86.1406V84.4062C44.8984 83.474 44.9818 82.6927 45.1484 82.0625C45.3203 81.4323 45.5625 80.9271 45.875 80.5469C46.1875 80.1615 46.5625 79.8854 47 79.7188C47.4427 79.5521 47.9375 79.4688 48.4844 79.4688C48.9271 79.4688 49.3333 79.5234 49.7031 79.6328C50.0781 79.737 50.4115 79.9062 50.7031 80.1406C50.9948 80.3698 51.2422 80.6771 51.4453 81.0625C51.6536 81.4427 51.8125 81.9089 51.9219 82.4609C52.0312 83.013 52.0859 83.6615 52.0859 84.4062ZM50.6328 86.375V84.1641C50.6328 83.6536 50.6016 83.2057 50.5391 82.8203C50.4818 82.4297 50.3958 82.0964 50.2812 81.8203C50.1667 81.5443 50.0208 81.3203 49.8438 81.1484C49.6719 80.9766 49.4714 80.8516 49.2422 80.7734C49.0182 80.6901 48.7656 80.6484 48.4844 80.6484C48.1406 80.6484 47.8359 80.7135 47.5703 80.8438C47.3047 80.9688 47.0807 81.1693 46.8984 81.4453C46.7214 81.7214 46.5859 82.0833 46.4922 82.5312C46.3984 82.9792 46.3516 83.5234 46.3516 84.1641V86.375C46.3516 86.8854 46.3802 87.3359 46.4375 87.7266C46.5 88.1172 46.5911 88.4557 46.7109 88.7422C46.8307 89.0234 46.9766 89.2552 47.1484 89.4375C47.3203 89.6198 47.5182 89.7552 47.7422 89.8438C47.9714 89.9271 48.224 89.9688 48.5 89.9688C48.8542 89.9688 49.1641 89.901 49.4297 89.7656C49.6953 89.6302 49.9167 89.4193 50.0938 89.1328C50.276 88.8411 50.4115 88.4688 50.5 88.0156C50.5885 87.5573 50.6328 87.0104 50.6328 86.375ZM58.2656 77.7812V80.1641H57.0938V77.7812H58.2656ZM58.125 90.5391V92.625H56.9609V90.5391H58.125ZM59.6875 88.0703C59.6875 87.7578 59.6172 87.4766 59.4766 87.2266C59.3359 86.9766 59.1042 86.7474 58.7812 86.5391C58.4583 86.3307 58.026 86.138 57.4844 85.9609C56.8281 85.7578 56.2604 85.5104 55.7812 85.2188C55.3073 84.9271 54.9401 84.5651 54.6797 84.1328C54.4245 83.7005 54.2969 83.1771 54.2969 82.5625C54.2969 81.9219 54.4349 81.3698 54.7109 80.9062C54.987 80.4427 55.3776 80.0859 55.8828 79.8359C56.388 79.5859 56.9818 79.4609 57.6641 79.4609C58.1953 79.4609 58.6693 79.5417 59.0859 79.7031C59.5026 79.8594 59.8542 80.0938 60.1406 80.4062C60.4323 80.7188 60.6536 81.1016 60.8047 81.5547C60.9609 82.0078 61.0391 82.5312 61.0391 83.125H59.6016C59.6016 82.776 59.5599 82.4557 59.4766 82.1641C59.3932 81.8724 59.2682 81.6198 59.1016 81.4062C58.9349 81.1875 58.7318 81.0208 58.4922 80.9062C58.2526 80.7865 57.9766 80.7266 57.6641 80.7266C57.2266 80.7266 56.8646 80.8021 56.5781 80.9531C56.2969 81.1042 56.0885 81.3177 55.9531 81.5938C55.8177 81.8646 55.75 82.1797 55.75 82.5391C55.75 82.8724 55.8177 83.1641 55.9531 83.4141C56.0885 83.6641 56.3177 83.8906 56.6406 84.0938C56.9688 84.2917 57.4193 84.487 57.9922 84.6797C58.6641 84.8932 59.2344 85.1458 59.7031 85.4375C60.1719 85.724 60.5286 86.0781 60.7734 86.5C61.0182 86.9167 61.1406 87.4349 61.1406 88.0547C61.1406 88.7266 60.9896 89.2943 60.6875 89.7578C60.3854 90.2161 59.9609 90.5651 59.4141 90.8047C58.8672 91.0443 58.2266 91.1641 57.4922 91.1641C57.0495 91.1641 56.612 91.1042 56.1797 90.9844C55.7474 90.8646 55.3568 90.6693 55.0078 90.3984C54.6589 90.1224 54.3802 89.7604 54.1719 89.3125C53.9635 88.8594 53.8594 88.3047 53.8594 87.6484H55.3125C55.3125 88.0911 55.375 88.4583 55.5 88.75C55.6302 89.0365 55.8021 89.2656 56.0156 89.4375C56.2292 89.6042 56.4635 89.724 56.7188 89.7969C56.9792 89.8646 57.237 89.8984 57.4922 89.8984C57.9609 89.8984 58.3568 89.8255 58.6797 89.6797C59.0078 89.5286 59.2578 89.3151 59.4297 89.0391C59.6016 88.763 59.6875 88.4401 59.6875 88.0703Z" fill="white"/>
<rect x="98" y="70" width="60" height="30" fill="#9883BF"/>
<path d="M118.398 89.8125V91H110.953V89.9609L114.68 85.8125C115.138 85.3021 115.492 84.8698 115.742 84.5156C115.997 84.1562 116.174 83.8359 116.273 83.5547C116.378 83.2682 116.43 82.9766 116.43 82.6797C116.43 82.3047 116.352 81.9661 116.195 81.6641C116.044 81.3568 115.82 81.112 115.523 80.9297C115.227 80.7474 114.867 80.6562 114.445 80.6562C113.94 80.6562 113.518 80.7552 113.18 80.9531C112.846 81.1458 112.596 81.4167 112.43 81.7656C112.263 82.1146 112.18 82.5156 112.18 82.9688H110.734C110.734 82.3281 110.875 81.7422 111.156 81.2109C111.438 80.6797 111.854 80.2578 112.406 79.9453C112.958 79.6276 113.638 79.4688 114.445 79.4688C115.164 79.4688 115.779 79.5964 116.289 79.8516C116.799 80.1016 117.19 80.4557 117.461 80.9141C117.737 81.3672 117.875 81.8984 117.875 82.5078C117.875 82.8411 117.818 83.1797 117.703 83.5234C117.594 83.862 117.44 84.2005 117.242 84.5391C117.049 84.8776 116.823 85.2109 116.562 85.5391C116.307 85.8672 116.034 86.1901 115.742 86.5078L112.695 89.8125H118.398ZM127.086 84.4062V86.1406C127.086 87.0729 127.003 87.8594 126.836 88.5C126.669 89.1406 126.43 89.6562 126.117 90.0469C125.805 90.4375 125.427 90.7214 124.984 90.8984C124.547 91.0703 124.052 91.1562 123.5 91.1562C123.062 91.1562 122.659 91.1016 122.289 90.9922C121.919 90.8828 121.586 90.7083 121.289 90.4688C120.997 90.224 120.747 89.9062 120.539 89.5156C120.331 89.125 120.172 88.651 120.062 88.0938C119.953 87.5365 119.898 86.8854 119.898 86.1406V84.4062C119.898 83.474 119.982 82.6927 120.148 82.0625C120.32 81.4323 120.562 80.9271 120.875 80.5469C121.188 80.1615 121.562 79.8854 122 79.7188C122.443 79.5521 122.938 79.4688 123.484 79.4688C123.927 79.4688 124.333 79.5234 124.703 79.6328C125.078 79.737 125.411 79.9062 125.703 80.1406C125.995 80.3698 126.242 80.6771 126.445 81.0625C126.654 81.4427 126.812 81.9089 126.922 82.4609C127.031 83.013 127.086 83.6615 127.086 84.4062ZM125.633 86.375V84.1641C125.633 83.6536 125.602 83.2057 125.539 82.8203C125.482 82.4297 125.396 82.0964 125.281 81.8203C125.167 81.5443 125.021 81.3203 124.844 81.1484C124.672 80.9766 124.471 80.8516 124.242 80.7734C124.018 80.6901 123.766 80.6484 123.484 80.6484C123.141 80.6484 122.836 80.7135 122.57 80.8438C122.305 80.9688 122.081 81.1693 121.898 81.4453C121.721 81.7214 121.586 82.0833 121.492 82.5312C121.398 82.9792 121.352 83.5234 121.352 84.1641V86.375C121.352 86.8854 121.38 87.3359 121.438 87.7266C121.5 88.1172 121.591 88.4557 121.711 88.7422C121.831 89.0234 121.977 89.2552 122.148 89.4375C122.32 89.6198 122.518 89.7552 122.742 89.8438C122.971 89.9271 123.224 89.9688 123.5 89.9688C123.854 89.9688 124.164 89.901 124.43 89.7656C124.695 89.6302 124.917 89.4193 125.094 89.1328C125.276 88.8411 125.411 88.4688 125.5 88.0156C125.589 87.5573 125.633 87.0104 125.633 86.375ZM136.086 84.4062V86.1406C136.086 87.0729 136.003 87.8594 135.836 88.5C135.669 89.1406 135.43 89.6562 135.117 90.0469C134.805 90.4375 134.427 90.7214 133.984 90.8984C133.547 91.0703 133.052 91.1562 132.5 91.1562C132.062 91.1562 131.659 91.1016 131.289 90.9922C130.919 90.8828 130.586 90.7083 130.289 90.4688C129.997 90.224 129.747 89.9062 129.539 89.5156C129.331 89.125 129.172 88.651 129.062 88.0938C128.953 87.5365 128.898 86.8854 128.898 86.1406V84.4062C128.898 83.474 128.982 82.6927 129.148 82.0625C129.32 81.4323 129.562 80.9271 129.875 80.5469C130.188 80.1615 130.562 79.8854 131 79.7188C131.443 79.5521 131.938 79.4688 132.484 79.4688C132.927 79.4688 133.333 79.5234 133.703 79.6328C134.078 79.737 134.411 79.9062 134.703 80.1406C134.995 80.3698 135.242 80.6771 135.445 81.0625C135.654 81.4427 135.812 81.9089 135.922 82.4609C136.031 83.013 136.086 83.6615 136.086 84.4062ZM134.633 86.375V84.1641C134.633 83.6536 134.602 83.2057 134.539 82.8203C134.482 82.4297 134.396 82.0964 134.281 81.8203C134.167 81.5443 134.021 81.3203 133.844 81.1484C133.672 80.9766 133.471 80.8516 133.242 80.7734C133.018 80.6901 132.766 80.6484 132.484 80.6484C132.141 80.6484 131.836 80.7135 131.57 80.8438C131.305 80.9688 131.081 81.1693 130.898 81.4453C130.721 81.7214 130.586 82.0833 130.492 82.5312C130.398 82.9792 130.352 83.5234 130.352 84.1641V86.375C130.352 86.8854 130.38 87.3359 130.438 87.7266C130.5 88.1172 130.591 88.4557 130.711 88.7422C130.831 89.0234 130.977 89.2552 131.148 89.4375C131.32 89.6198 131.518 89.7552 131.742 89.8438C131.971 89.9271 132.224 89.9688 132.5 89.9688C132.854 89.9688 133.164 89.901 133.43 89.7656C133.695 89.6302 133.917 89.4193 134.094 89.1328C134.276 88.8411 134.411 88.4688 134.5 88.0156C134.589 87.5573 134.633 87.0104 134.633 86.375ZM142.266 77.7812V80.1641H141.094V77.7812H142.266ZM142.125 90.5391V92.625H140.961V90.5391H142.125ZM143.688 88.0703C143.688 87.7578 143.617 87.4766 143.477 87.2266C143.336 86.9766 143.104 86.7474 142.781 86.5391C142.458 86.3307 142.026 86.138 141.484 85.9609C140.828 85.7578 140.26 85.5104 139.781 85.2188C139.307 84.9271 138.94 84.5651 138.68 84.1328C138.424 83.7005 138.297 83.1771 138.297 82.5625C138.297 81.9219 138.435 81.3698 138.711 80.9062C138.987 80.4427 139.378 80.0859 139.883 79.8359C140.388 79.5859 140.982 79.4609 141.664 79.4609C142.195 79.4609 142.669 79.5417 143.086 79.7031C143.503 79.8594 143.854 80.0938 144.141 80.4062C144.432 80.7188 144.654 81.1016 144.805 81.5547C144.961 82.0078 145.039 82.5312 145.039 83.125H143.602C143.602 82.776 143.56 82.4557 143.477 82.1641C143.393 81.8724 143.268 81.6198 143.102 81.4062C142.935 81.1875 142.732 81.0208 142.492 80.9062C142.253 80.7865 141.977 80.7266 141.664 80.7266C141.227 80.7266 140.865 80.8021 140.578 80.9531C140.297 81.1042 140.089 81.3177 139.953 81.5938C139.818 81.8646 139.75 82.1797 139.75 82.5391C139.75 82.8724 139.818 83.1641 139.953 83.4141C140.089 83.6641 140.318 83.8906 140.641 84.0938C140.969 84.2917 141.419 84.487 141.992 84.6797C142.664 84.8932 143.234 85.1458 143.703 85.4375C144.172 85.724 144.529 86.0781 144.773 86.5C145.018 86.9167 145.141 87.4349 145.141 88.0547C145.141 88.7266 144.99 89.2943 144.688 89.7578C144.385 90.2161 143.961 90.5651 143.414 90.8047C142.867 91.0443 142.227 91.1641 141.492 91.1641C141.049 91.1641 140.612 91.1042 140.18 90.9844C139.747 90.8646 139.357 90.6693 139.008 90.3984C138.659 90.1224 138.38 89.7604 138.172 89.3125C137.964 88.8594 137.859 88.3047 137.859 87.6484H139.312C139.312 88.0911 139.375 88.4583 139.5 88.75C139.63 89.0365 139.802 89.2656 140.016 89.4375C140.229 89.6042 140.464 89.724 140.719 89.7969C140.979 89.8646 141.237 89.8984 141.492 89.8984C141.961 89.8984 142.357 89.8255 142.68 89.6797C143.008 89.5286 143.258 89.3151 143.43 89.0391C143.602 88.763 143.688 88.4401 143.688 88.0703Z" fill="white"/>
<path d="M195.055 84.6016H196.086C196.591 84.6016 197.008 84.5182 197.336 84.3516C197.669 84.1797 197.917 83.9479 198.078 83.6562C198.245 83.3594 198.328 83.026 198.328 82.6562C198.328 82.2188 198.255 81.8516 198.109 81.5547C197.964 81.2578 197.745 81.0339 197.453 80.8828C197.161 80.7318 196.792 80.6562 196.344 80.6562C195.938 80.6562 195.578 80.737 195.266 80.8984C194.958 81.0547 194.716 81.2786 194.539 81.5703C194.367 81.862 194.281 82.2057 194.281 82.6016H192.836C192.836 82.0234 192.982 81.4974 193.273 81.0234C193.565 80.5495 193.974 80.1719 194.5 79.8906C195.031 79.6094 195.646 79.4688 196.344 79.4688C197.031 79.4688 197.633 79.5911 198.148 79.8359C198.664 80.0755 199.065 80.4349 199.352 80.9141C199.638 81.388 199.781 81.9792 199.781 82.6875C199.781 82.974 199.714 83.2812 199.578 83.6094C199.448 83.9323 199.242 84.2344 198.961 84.5156C198.685 84.7969 198.326 85.0286 197.883 85.2109C197.44 85.388 196.909 85.4766 196.289 85.4766H195.055V84.6016ZM195.055 85.7891V84.9219H196.289C197.013 84.9219 197.612 85.0078 198.086 85.1797C198.56 85.3516 198.932 85.5807 199.203 85.8672C199.479 86.1536 199.672 86.4688 199.781 86.8125C199.896 87.151 199.953 87.4896 199.953 87.8281C199.953 88.3594 199.862 88.8307 199.68 89.2422C199.503 89.6536 199.25 90.0026 198.922 90.2891C198.599 90.5755 198.219 90.7917 197.781 90.9375C197.344 91.0833 196.867 91.1562 196.352 91.1562C195.857 91.1562 195.391 91.0859 194.953 90.9453C194.521 90.8047 194.138 90.6016 193.805 90.3359C193.471 90.0651 193.211 89.7344 193.023 89.3438C192.836 88.9479 192.742 88.4974 192.742 87.9922H194.188C194.188 88.388 194.273 88.7344 194.445 89.0312C194.622 89.3281 194.872 89.5599 195.195 89.7266C195.523 89.888 195.909 89.9688 196.352 89.9688C196.794 89.9688 197.174 89.8932 197.492 89.7422C197.815 89.5859 198.062 89.3516 198.234 89.0391C198.411 88.7266 198.5 88.3333 198.5 87.8594C198.5 87.3854 198.401 86.9974 198.203 86.6953C198.005 86.388 197.724 86.1615 197.359 86.0156C197 85.8646 196.576 85.7891 196.086 85.7891H195.055ZM209.086 84.4062V86.1406C209.086 87.0729 209.003 87.8594 208.836 88.5C208.669 89.1406 208.43 89.6562 208.117 90.0469C207.805 90.4375 207.427 90.7214 206.984 90.8984C206.547 91.0703 206.052 91.1562 205.5 91.1562C205.062 91.1562 204.659 91.1016 204.289 90.9922C203.919 90.8828 203.586 90.7083 203.289 90.4688C202.997 90.224 202.747 89.9062 202.539 89.5156C202.331 89.125 202.172 88.651 202.062 88.0938C201.953 87.5365 201.898 86.8854 201.898 86.1406V84.4062C201.898 83.474 201.982 82.6927 202.148 82.0625C202.32 81.4323 202.562 80.9271 202.875 80.5469C203.188 80.1615 203.562 79.8854 204 79.7188C204.443 79.5521 204.938 79.4688 205.484 79.4688C205.927 79.4688 206.333 79.5234 206.703 79.6328C207.078 79.737 207.411 79.9062 207.703 80.1406C207.995 80.3698 208.242 80.6771 208.445 81.0625C208.654 81.4427 208.812 81.9089 208.922 82.4609C209.031 83.013 209.086 83.6615 209.086 84.4062ZM207.633 86.375V84.1641C207.633 83.6536 207.602 83.2057 207.539 82.8203C207.482 82.4297 207.396 82.0964 207.281 81.8203C207.167 81.5443 207.021 81.3203 206.844 81.1484C206.672 80.9766 206.471 80.8516 206.242 80.7734C206.018 80.6901 205.766 80.6484 205.484 80.6484C205.141 80.6484 204.836 80.7135 204.57 80.8438C204.305 80.9688 204.081 81.1693 203.898 81.4453C203.721 81.7214 203.586 82.0833 203.492 82.5312C203.398 82.9792 203.352 83.5234 203.352 84.1641V86.375C203.352 86.8854 203.38 87.3359 203.438 87.7266C203.5 88.1172 203.591 88.4557 203.711 88.7422C203.831 89.0234 203.977 89.2552 204.148 89.4375C204.32 89.6198 204.518 89.7552 204.742 89.8438C204.971 89.9271 205.224 89.9688 205.5 89.9688C205.854 89.9688 206.164 89.901 206.43 89.7656C206.695 89.6302 206.917 89.4193 207.094 89.1328C207.276 88.8411 207.411 88.4688 207.5 88.0156C207.589 87.5573 207.633 87.0104 207.633 86.375ZM218.086 84.4062V86.1406C218.086 87.0729 218.003 87.8594 217.836 88.5C217.669 89.1406 217.43 89.6562 217.117 90.0469C216.805 90.4375 216.427 90.7214 215.984 90.8984C215.547 91.0703 215.052 91.1562 214.5 91.1562C214.062 91.1562 213.659 91.1016 213.289 90.9922C212.919 90.8828 212.586 90.7083 212.289 90.4688C211.997 90.224 211.747 89.9062 211.539 89.5156C211.331 89.125 211.172 88.651 211.062 88.0938C210.953 87.5365 210.898 86.8854 210.898 86.1406V84.4062C210.898 83.474 210.982 82.6927 211.148 82.0625C211.32 81.4323 211.562 80.9271 211.875 80.5469C212.188 80.1615 212.562 79.8854 213 79.7188C213.443 79.5521 213.938 79.4688 214.484 79.4688C214.927 79.4688 215.333 79.5234 215.703 79.6328C216.078 79.737 216.411 79.9062 216.703 80.1406C216.995 80.3698 217.242 80.6771 217.445 81.0625C217.654 81.4427 217.812 81.9089 217.922 82.4609C218.031 83.013 218.086 83.6615 218.086 84.4062ZM216.633 86.375V84.1641C216.633 83.6536 216.602 83.2057 216.539 82.8203C216.482 82.4297 216.396 82.0964 216.281 81.8203C216.167 81.5443 216.021 81.3203 215.844 81.1484C215.672 80.9766 215.471 80.8516 215.242 80.7734C215.018 80.6901 214.766 80.6484 214.484 80.6484C214.141 80.6484 213.836 80.7135 213.57 80.8438C213.305 80.9688 213.081 81.1693 212.898 81.4453C212.721 81.7214 212.586 82.0833 212.492 82.5312C212.398 82.9792 212.352 83.5234 212.352 84.1641V86.375C212.352 86.8854 212.38 87.3359 212.438 87.7266C212.5 88.1172 212.591 88.4557 212.711 88.7422C212.831 89.0234 212.977 89.2552 213.148 89.4375C213.32 89.6198 213.518 89.7552 213.742 89.8438C213.971 89.9271 214.224 89.9688 214.5 89.9688C214.854 89.9688 215.164 89.901 215.43 89.7656C215.695 89.6302 215.917 89.4193 216.094 89.1328C216.276 88.8411 216.411 88.4688 216.5 88.0156C216.589 87.5573 216.633 87.0104 216.633 86.375ZM224.266 77.7812V80.1641H223.094V77.7812H224.266ZM224.125 90.5391V92.625H222.961V90.5391H224.125ZM225.688 88.0703C225.688 87.7578 225.617 87.4766 225.477 87.2266C225.336 86.9766 225.104 86.7474 224.781 86.5391C224.458 86.3307 224.026 86.138 223.484 85.9609C222.828 85.7578 222.26 85.5104 221.781 85.2188C221.307 84.9271 220.94 84.5651 220.68 84.1328C220.424 83.7005 220.297 83.1771 220.297 82.5625C220.297 81.9219 220.435 81.3698 220.711 80.9062C220.987 80.4427 221.378 80.0859 221.883 79.8359C222.388 79.5859 222.982 79.4609 223.664 79.4609C224.195 79.4609 224.669 79.5417 225.086 79.7031C225.503 79.8594 225.854 80.0938 226.141 80.4062C226.432 80.7188 226.654 81.1016 226.805 81.5547C226.961 82.0078 227.039 82.5312 227.039 83.125H225.602C225.602 82.776 225.56 82.4557 225.477 82.1641C225.393 81.8724 225.268 81.6198 225.102 81.4062C224.935 81.1875 224.732 81.0208 224.492 80.9062C224.253 80.7865 223.977 80.7266 223.664 80.7266C223.227 80.7266 222.865 80.8021 222.578 80.9531C222.297 81.1042 222.089 81.3177 221.953 81.5938C221.818 81.8646 221.75 82.1797 221.75 82.5391C221.75 82.8724 221.818 83.1641 221.953 83.4141C222.089 83.6641 222.318 83.8906 222.641 84.0938C222.969 84.2917 223.419 84.487 223.992 84.6797C224.664 84.8932 225.234 85.1458 225.703 85.4375C226.172 85.724 226.529 86.0781 226.773 86.5C227.018 86.9167 227.141 87.4349 227.141 88.0547C227.141 88.7266 226.99 89.2943 226.688 89.7578C226.385 90.2161 225.961 90.5651 225.414 90.8047C224.867 91.0443 224.227 91.1641 223.492 91.1641C223.049 91.1641 222.612 91.1042 222.18 90.9844C221.747 90.8646 221.357 90.6693 221.008 90.3984C220.659 90.1224 220.38 89.7604 220.172 89.3125C219.964 88.8594 219.859 88.3047 219.859 87.6484H221.312C221.312 88.0911 221.375 88.4583 221.5 88.75C221.63 89.0365 221.802 89.2656 222.016 89.4375C222.229 89.6042 222.464 89.724 222.719 89.7969C222.979 89.8646 223.237 89.8984 223.492 89.8984C223.961 89.8984 224.357 89.8255 224.68 89.6797C225.008 89.5286 225.258 89.3151 225.43 89.0391C225.602 88.763 225.688 88.4401 225.688 88.0703Z" fill="white"/>
<rect x="180" y="127" width="60" height="30" fill="#9883BF"/>
<rect x="15" y="127" width="60" height="30" fill="#9883BF"/>
<path d="M33.7734 142.586L32.6172 142.289L33.1875 136.625H39.0234V137.961H34.4141L34.0703 141.055C34.2786 140.935 34.5417 140.823 34.8594 140.719C35.1823 140.615 35.5521 140.562 35.9688 140.562C36.4948 140.562 36.9661 140.654 37.3828 140.836C37.7995 141.013 38.1536 141.268 38.4453 141.602C38.7422 141.935 38.9688 142.336 39.125 142.805C39.2812 143.273 39.3594 143.797 39.3594 144.375C39.3594 144.922 39.2839 145.424 39.1328 145.883C38.987 146.341 38.7656 146.742 38.4688 147.086C38.1719 147.424 37.7969 147.688 37.3438 147.875C36.8958 148.062 36.3672 148.156 35.7578 148.156C35.2995 148.156 34.8646 148.094 34.4531 147.969C34.0469 147.839 33.6823 147.643 33.3594 147.383C33.0417 147.117 32.7812 146.789 32.5781 146.398C32.3802 146.003 32.2552 145.539 32.2031 145.008H33.5781C33.6406 145.435 33.7656 145.794 33.9531 146.086C34.1406 146.378 34.3854 146.599 34.6875 146.75C34.9948 146.896 35.3516 146.969 35.7578 146.969C36.1016 146.969 36.4062 146.909 36.6719 146.789C36.9375 146.669 37.1615 146.497 37.3438 146.273C37.526 146.049 37.6641 145.779 37.7578 145.461C37.8568 145.143 37.9062 144.786 37.9062 144.391C37.9062 144.031 37.8568 143.698 37.7578 143.391C37.6589 143.083 37.5104 142.815 37.3125 142.586C37.1198 142.357 36.8828 142.18 36.6016 142.055C36.3203 141.924 35.9974 141.859 35.6328 141.859C35.1484 141.859 34.7812 141.924 34.5312 142.055C34.2865 142.185 34.0339 142.362 33.7734 142.586ZM48.0859 141.406V143.141C48.0859 144.073 48.0026 144.859 47.8359 145.5C47.6693 146.141 47.4297 146.656 47.1172 147.047C46.8047 147.438 46.4271 147.721 45.9844 147.898C45.5469 148.07 45.0521 148.156 44.5 148.156C44.0625 148.156 43.6589 148.102 43.2891 147.992C42.9193 147.883 42.5859 147.708 42.2891 147.469C41.9974 147.224 41.7474 146.906 41.5391 146.516C41.3307 146.125 41.1719 145.651 41.0625 145.094C40.9531 144.536 40.8984 143.885 40.8984 143.141V141.406C40.8984 140.474 40.9818 139.693 41.1484 139.062C41.3203 138.432 41.5625 137.927 41.875 137.547C42.1875 137.161 42.5625 136.885 43 136.719C43.4427 136.552 43.9375 136.469 44.4844 136.469C44.9271 136.469 45.3333 136.523 45.7031 136.633C46.0781 136.737 46.4115 136.906 46.7031 137.141C46.9948 137.37 47.2422 137.677 47.4453 138.062C47.6536 138.443 47.8125 138.909 47.9219 139.461C48.0312 140.013 48.0859 140.661 48.0859 141.406ZM46.6328 143.375V141.164C46.6328 140.654 46.6016 140.206 46.5391 139.82C46.4818 139.43 46.3958 139.096 46.2812 138.82C46.1667 138.544 46.0208 138.32 45.8438 138.148C45.6719 137.977 45.4714 137.852 45.2422 137.773C45.0182 137.69 44.7656 137.648 44.4844 137.648C44.1406 137.648 43.8359 137.714 43.5703 137.844C43.3047 137.969 43.0807 138.169 42.8984 138.445C42.7214 138.721 42.5859 139.083 42.4922 139.531C42.3984 139.979 42.3516 140.523 42.3516 141.164V143.375C42.3516 143.885 42.3802 144.336 42.4375 144.727C42.5 145.117 42.5911 145.456 42.7109 145.742C42.8307 146.023 42.9766 146.255 43.1484 146.438C43.3203 146.62 43.5182 146.755 43.7422 146.844C43.9714 146.927 44.224 146.969 44.5 146.969C44.8542 146.969 45.1641 146.901 45.4297 146.766C45.6953 146.63 45.9167 146.419 46.0938 146.133C46.276 145.841 46.4115 145.469 46.5 145.016C46.5885 144.557 46.6328 144.01 46.6328 143.375ZM54.2656 134.781V137.164H53.0938V134.781H54.2656ZM54.125 147.539V149.625H52.9609V147.539H54.125ZM55.6875 145.07C55.6875 144.758 55.6172 144.477 55.4766 144.227C55.3359 143.977 55.1042 143.747 54.7812 143.539C54.4583 143.331 54.026 143.138 53.4844 142.961C52.8281 142.758 52.2604 142.51 51.7812 142.219C51.3073 141.927 50.9401 141.565 50.6797 141.133C50.4245 140.701 50.2969 140.177 50.2969 139.562C50.2969 138.922 50.4349 138.37 50.7109 137.906C50.987 137.443 51.3776 137.086 51.8828 136.836C52.388 136.586 52.9818 136.461 53.6641 136.461C54.1953 136.461 54.6693 136.542 55.0859 136.703C55.5026 136.859 55.8542 137.094 56.1406 137.406C56.4323 137.719 56.6536 138.102 56.8047 138.555C56.9609 139.008 57.0391 139.531 57.0391 140.125H55.6016C55.6016 139.776 55.5599 139.456 55.4766 139.164C55.3932 138.872 55.2682 138.62 55.1016 138.406C54.9349 138.188 54.7318 138.021 54.4922 137.906C54.2526 137.786 53.9766 137.727 53.6641 137.727C53.2266 137.727 52.8646 137.802 52.5781 137.953C52.2969 138.104 52.0885 138.318 51.9531 138.594C51.8177 138.865 51.75 139.18 51.75 139.539C51.75 139.872 51.8177 140.164 51.9531 140.414C52.0885 140.664 52.3177 140.891 52.6406 141.094C52.9688 141.292 53.4193 141.487 53.9922 141.68C54.6641 141.893 55.2344 142.146 55.7031 142.438C56.1719 142.724 56.5286 143.078 56.7734 143.5C57.0182 143.917 57.1406 144.435 57.1406 145.055C57.1406 145.727 56.9896 146.294 56.6875 146.758C56.3854 147.216 55.9609 147.565 55.4141 147.805C54.8672 148.044 54.2266 148.164 53.4922 148.164C53.0495 148.164 52.612 148.104 52.1797 147.984C51.7474 147.865 51.3568 147.669 51.0078 147.398C50.6589 147.122 50.3802 146.76 50.1719 146.312C49.9635 145.859 49.8594 145.305 49.8594 144.648H51.3125C51.3125 145.091 51.375 145.458 51.5 145.75C51.6302 146.036 51.8021 146.266 52.0156 146.438C52.2292 146.604 52.4635 146.724 52.7188 146.797C52.9792 146.865 53.237 146.898 53.4922 146.898C53.9609 146.898 54.3568 146.826 54.6797 146.68C55.0078 146.529 55.2578 146.315 55.4297 146.039C55.6016 145.763 55.6875 145.44 55.6875 145.07Z" fill="white"/>
<rect x="98" y="127" width="60" height="30" fill="#9883BF"/>
<path d="M112.773 142.586L111.617 142.289L112.188 136.625H118.023V137.961H113.414L113.07 141.055C113.279 140.935 113.542 140.823 113.859 140.719C114.182 140.615 114.552 140.562 114.969 140.562C115.495 140.562 115.966 140.654 116.383 140.836C116.799 141.013 117.154 141.268 117.445 141.602C117.742 141.935 117.969 142.336 118.125 142.805C118.281 143.273 118.359 143.797 118.359 144.375C118.359 144.922 118.284 145.424 118.133 145.883C117.987 146.341 117.766 146.742 117.469 147.086C117.172 147.424 116.797 147.688 116.344 147.875C115.896 148.062 115.367 148.156 114.758 148.156C114.299 148.156 113.865 148.094 113.453 147.969C113.047 147.839 112.682 147.643 112.359 147.383C112.042 147.117 111.781 146.789 111.578 146.398C111.38 146.003 111.255 145.539 111.203 145.008H112.578C112.641 145.435 112.766 145.794 112.953 146.086C113.141 146.378 113.385 146.599 113.688 146.75C113.995 146.896 114.352 146.969 114.758 146.969C115.102 146.969 115.406 146.909 115.672 146.789C115.938 146.669 116.161 146.497 116.344 146.273C116.526 146.049 116.664 145.779 116.758 145.461C116.857 145.143 116.906 144.786 116.906 144.391C116.906 144.031 116.857 143.698 116.758 143.391C116.659 143.083 116.51 142.815 116.312 142.586C116.12 142.357 115.883 142.18 115.602 142.055C115.32 141.924 114.997 141.859 114.633 141.859C114.148 141.859 113.781 141.924 113.531 142.055C113.286 142.185 113.034 142.362 112.773 142.586ZM127.086 141.406V143.141C127.086 144.073 127.003 144.859 126.836 145.5C126.669 146.141 126.43 146.656 126.117 147.047C125.805 147.438 125.427 147.721 124.984 147.898C124.547 148.07 124.052 148.156 123.5 148.156C123.062 148.156 122.659 148.102 122.289 147.992C121.919 147.883 121.586 147.708 121.289 147.469C120.997 147.224 120.747 146.906 120.539 146.516C120.331 146.125 120.172 145.651 120.062 145.094C119.953 144.536 119.898 143.885 119.898 143.141V141.406C119.898 140.474 119.982 139.693 120.148 139.062C120.32 138.432 120.562 137.927 120.875 137.547C121.188 137.161 121.562 136.885 122 136.719C122.443 136.552 122.938 136.469 123.484 136.469C123.927 136.469 124.333 136.523 124.703 136.633C125.078 136.737 125.411 136.906 125.703 137.141C125.995 137.37 126.242 137.677 126.445 138.062C126.654 138.443 126.812 138.909 126.922 139.461C127.031 140.013 127.086 140.661 127.086 141.406ZM125.633 143.375V141.164C125.633 140.654 125.602 140.206 125.539 139.82C125.482 139.43 125.396 139.096 125.281 138.82C125.167 138.544 125.021 138.32 124.844 138.148C124.672 137.977 124.471 137.852 124.242 137.773C124.018 137.69 123.766 137.648 123.484 137.648C123.141 137.648 122.836 137.714 122.57 137.844C122.305 137.969 122.081 138.169 121.898 138.445C121.721 138.721 121.586 139.083 121.492 139.531C121.398 139.979 121.352 140.523 121.352 141.164V143.375C121.352 143.885 121.38 144.336 121.438 144.727C121.5 145.117 121.591 145.456 121.711 145.742C121.831 146.023 121.977 146.255 122.148 146.438C122.32 146.62 122.518 146.755 122.742 146.844C122.971 146.927 123.224 146.969 123.5 146.969C123.854 146.969 124.164 146.901 124.43 146.766C124.695 146.63 124.917 146.419 125.094 146.133C125.276 145.841 125.411 145.469 125.5 145.016C125.589 144.557 125.633 144.01 125.633 143.375ZM136.086 141.406V143.141C136.086 144.073 136.003 144.859 135.836 145.5C135.669 146.141 135.43 146.656 135.117 147.047C134.805 147.438 134.427 147.721 133.984 147.898C133.547 148.07 133.052 148.156 132.5 148.156C132.062 148.156 131.659 148.102 131.289 147.992C130.919 147.883 130.586 147.708 130.289 147.469C129.997 147.224 129.747 146.906 129.539 146.516C129.331 146.125 129.172 145.651 129.062 145.094C128.953 144.536 128.898 143.885 128.898 143.141V141.406C128.898 140.474 128.982 139.693 129.148 139.062C129.32 138.432 129.562 137.927 129.875 137.547C130.188 137.161 130.562 136.885 131 136.719C131.443 136.552 131.938 136.469 132.484 136.469C132.927 136.469 133.333 136.523 133.703 136.633C134.078 136.737 134.411 136.906 134.703 137.141C134.995 137.37 135.242 137.677 135.445 138.062C135.654 138.443 135.812 138.909 135.922 139.461C136.031 140.013 136.086 140.661 136.086 141.406ZM134.633 143.375V141.164C134.633 140.654 134.602 140.206 134.539 139.82C134.482 139.43 134.396 139.096 134.281 138.82C134.167 138.544 134.021 138.32 133.844 138.148C133.672 137.977 133.471 137.852 133.242 137.773C133.018 137.69 132.766 137.648 132.484 137.648C132.141 137.648 131.836 137.714 131.57 137.844C131.305 137.969 131.081 138.169 130.898 138.445C130.721 138.721 130.586 139.083 130.492 139.531C130.398 139.979 130.352 140.523 130.352 141.164V143.375C130.352 143.885 130.38 144.336 130.438 144.727C130.5 145.117 130.591 145.456 130.711 145.742C130.831 146.023 130.977 146.255 131.148 146.438C131.32 146.62 131.518 146.755 131.742 146.844C131.971 146.927 132.224 146.969 132.5 146.969C132.854 146.969 133.164 146.901 133.43 146.766C133.695 146.63 133.917 146.419 134.094 146.133C134.276 145.841 134.411 145.469 134.5 145.016C134.589 144.557 134.633 144.01 134.633 143.375ZM142.266 134.781V137.164H141.094V134.781H142.266ZM142.125 147.539V149.625H140.961V147.539H142.125ZM143.688 145.07C143.688 144.758 143.617 144.477 143.477 144.227C143.336 143.977 143.104 143.747 142.781 143.539C142.458 143.331 142.026 143.138 141.484 142.961C140.828 142.758 140.26 142.51 139.781 142.219C139.307 141.927 138.94 141.565 138.68 141.133C138.424 140.701 138.297 140.177 138.297 139.562C138.297 138.922 138.435 138.37 138.711 137.906C138.987 137.443 139.378 137.086 139.883 136.836C140.388 136.586 140.982 136.461 141.664 136.461C142.195 136.461 142.669 136.542 143.086 136.703C143.503 136.859 143.854 137.094 144.141 137.406C144.432 137.719 144.654 138.102 144.805 138.555C144.961 139.008 145.039 139.531 145.039 140.125H143.602C143.602 139.776 143.56 139.456 143.477 139.164C143.393 138.872 143.268 138.62 143.102 138.406C142.935 138.188 142.732 138.021 142.492 137.906C142.253 137.786 141.977 137.727 141.664 137.727C141.227 137.727 140.865 137.802 140.578 137.953C140.297 138.104 140.089 138.318 139.953 138.594C139.818 138.865 139.75 139.18 139.75 139.539C139.75 139.872 139.818 140.164 139.953 140.414C140.089 140.664 140.318 140.891 140.641 141.094C140.969 141.292 141.419 141.487 141.992 141.68C142.664 141.893 143.234 142.146 143.703 142.438C144.172 142.724 144.529 143.078 144.773 143.5C145.018 143.917 145.141 144.435 145.141 145.055C145.141 145.727 144.99 146.294 144.688 146.758C144.385 147.216 143.961 147.565 143.414 147.805C142.867 148.044 142.227 148.164 141.492 148.164C141.049 148.164 140.612 148.104 140.18 147.984C139.747 147.865 139.357 147.669 139.008 147.398C138.659 147.122 138.38 146.76 138.172 146.312C137.964 145.859 137.859 145.305 137.859 144.648H139.312C139.312 145.091 139.375 145.458 139.5 145.75C139.63 146.036 139.802 146.266 140.016 146.438C140.229 146.604 140.464 146.724 140.719 146.797C140.979 146.865 141.237 146.898 141.492 146.898C141.961 146.898 142.357 146.826 142.68 146.68C143.008 146.529 143.258 146.315 143.43 146.039C143.602 145.763 143.688 145.44 143.688 145.07Z" fill="white"/>
<path d="M200.117 144.922C200.117 145.615 199.956 146.203 199.633 146.688C199.315 147.167 198.883 147.531 198.336 147.781C197.794 148.031 197.182 148.156 196.5 148.156C195.818 148.156 195.203 148.031 194.656 147.781C194.109 147.531 193.677 147.167 193.359 146.688C193.042 146.203 192.883 145.615 192.883 144.922C192.883 144.469 192.969 144.055 193.141 143.68C193.318 143.299 193.565 142.969 193.883 142.688C194.206 142.406 194.586 142.19 195.023 142.039C195.466 141.883 195.953 141.805 196.484 141.805C197.182 141.805 197.805 141.94 198.352 142.211C198.898 142.477 199.328 142.844 199.641 143.312C199.958 143.781 200.117 144.318 200.117 144.922ZM198.664 144.891C198.664 144.469 198.573 144.096 198.391 143.773C198.208 143.445 197.953 143.19 197.625 143.008C197.297 142.826 196.917 142.734 196.484 142.734C196.042 142.734 195.659 142.826 195.336 143.008C195.018 143.19 194.771 143.445 194.594 143.773C194.417 144.096 194.328 144.469 194.328 144.891C194.328 145.328 194.414 145.703 194.586 146.016C194.763 146.323 195.013 146.56 195.336 146.727C195.664 146.888 196.052 146.969 196.5 146.969C196.948 146.969 197.333 146.888 197.656 146.727C197.979 146.56 198.227 146.323 198.398 146.016C198.576 145.703 198.664 145.328 198.664 144.891ZM199.852 139.586C199.852 140.138 199.706 140.635 199.414 141.078C199.122 141.521 198.724 141.87 198.219 142.125C197.714 142.38 197.141 142.508 196.5 142.508C195.849 142.508 195.268 142.38 194.758 142.125C194.253 141.87 193.857 141.521 193.57 141.078C193.284 140.635 193.141 140.138 193.141 139.586C193.141 138.924 193.284 138.362 193.57 137.898C193.862 137.435 194.26 137.081 194.766 136.836C195.271 136.591 195.846 136.469 196.492 136.469C197.143 136.469 197.721 136.591 198.227 136.836C198.732 137.081 199.128 137.435 199.414 137.898C199.706 138.362 199.852 138.924 199.852 139.586ZM198.406 139.609C198.406 139.229 198.326 138.893 198.164 138.602C198.003 138.31 197.779 138.081 197.492 137.914C197.206 137.742 196.872 137.656 196.492 137.656C196.112 137.656 195.779 137.737 195.492 137.898C195.211 138.055 194.99 138.279 194.828 138.57C194.672 138.862 194.594 139.208 194.594 139.609C194.594 140 194.672 140.341 194.828 140.633C194.99 140.924 195.214 141.151 195.5 141.312C195.786 141.474 196.12 141.555 196.5 141.555C196.88 141.555 197.211 141.474 197.492 141.312C197.779 141.151 198.003 140.924 198.164 140.633C198.326 140.341 198.406 140 198.406 139.609ZM209.086 141.406V143.141C209.086 144.073 209.003 144.859 208.836 145.5C208.669 146.141 208.43 146.656 208.117 147.047C207.805 147.438 207.427 147.721 206.984 147.898C206.547 148.07 206.052 148.156 205.5 148.156C205.062 148.156 204.659 148.102 204.289 147.992C203.919 147.883 203.586 147.708 203.289 147.469C202.997 147.224 202.747 146.906 202.539 146.516C202.331 146.125 202.172 145.651 202.062 145.094C201.953 144.536 201.898 143.885 201.898 143.141V141.406C201.898 140.474 201.982 139.693 202.148 139.062C202.32 138.432 202.562 137.927 202.875 137.547C203.188 137.161 203.562 136.885 204 136.719C204.443 136.552 204.938 136.469 205.484 136.469C205.927 136.469 206.333 136.523 206.703 136.633C207.078 136.737 207.411 136.906 207.703 137.141C207.995 137.37 208.242 137.677 208.445 138.062C208.654 138.443 208.812 138.909 208.922 139.461C209.031 140.013 209.086 140.661 209.086 141.406ZM207.633 143.375V141.164C207.633 140.654 207.602 140.206 207.539 139.82C207.482 139.43 207.396 139.096 207.281 138.82C207.167 138.544 207.021 138.32 206.844 138.148C206.672 137.977 206.471 137.852 206.242 137.773C206.018 137.69 205.766 137.648 205.484 137.648C205.141 137.648 204.836 137.714 204.57 137.844C204.305 137.969 204.081 138.169 203.898 138.445C203.721 138.721 203.586 139.083 203.492 139.531C203.398 139.979 203.352 140.523 203.352 141.164V143.375C203.352 143.885 203.38 144.336 203.438 144.727C203.5 145.117 203.591 145.456 203.711 145.742C203.831 146.023 203.977 146.255 204.148 146.438C204.32 146.62 204.518 146.755 204.742 146.844C204.971 146.927 205.224 146.969 205.5 146.969C205.854 146.969 206.164 146.901 206.43 146.766C206.695 146.63 206.917 146.419 207.094 146.133C207.276 145.841 207.411 145.469 207.5 145.016C207.589 144.557 207.633 144.01 207.633 143.375ZM218.086 141.406V143.141C218.086 144.073 218.003 144.859 217.836 145.5C217.669 146.141 217.43 146.656 217.117 147.047C216.805 147.438 216.427 147.721 215.984 147.898C215.547 148.07 215.052 148.156 214.5 148.156C214.062 148.156 213.659 148.102 213.289 147.992C212.919 147.883 212.586 147.708 212.289 147.469C211.997 147.224 211.747 146.906 211.539 146.516C211.331 146.125 211.172 145.651 211.062 145.094C210.953 144.536 210.898 143.885 210.898 143.141V141.406C210.898 140.474 210.982 139.693 211.148 139.062C211.32 138.432 211.562 137.927 211.875 137.547C212.188 137.161 212.562 136.885 213 136.719C213.443 136.552 213.938 136.469 214.484 136.469C214.927 136.469 215.333 136.523 215.703 136.633C216.078 136.737 216.411 136.906 216.703 137.141C216.995 137.37 217.242 137.677 217.445 138.062C217.654 138.443 217.812 138.909 217.922 139.461C218.031 140.013 218.086 140.661 218.086 141.406ZM216.633 143.375V141.164C216.633 140.654 216.602 140.206 216.539 139.82C216.482 139.43 216.396 139.096 216.281 138.82C216.167 138.544 216.021 138.32 215.844 138.148C215.672 137.977 215.471 137.852 215.242 137.773C215.018 137.69 214.766 137.648 214.484 137.648C214.141 137.648 213.836 137.714 213.57 137.844C213.305 137.969 213.081 138.169 212.898 138.445C212.721 138.721 212.586 139.083 212.492 139.531C212.398 139.979 212.352 140.523 212.352 141.164V143.375C212.352 143.885 212.38 144.336 212.438 144.727C212.5 145.117 212.591 145.456 212.711 145.742C212.831 146.023 212.977 146.255 213.148 146.438C213.32 146.62 213.518 146.755 213.742 146.844C213.971 146.927 214.224 146.969 214.5 146.969C214.854 146.969 215.164 146.901 215.43 146.766C215.695 146.63 215.917 146.419 216.094 146.133C216.276 145.841 216.411 145.469 216.5 145.016C216.589 144.557 216.633 144.01 216.633 143.375ZM224.266 134.781V137.164H223.094V134.781H224.266ZM224.125 147.539V149.625H222.961V147.539H224.125ZM225.688 145.07C225.688 144.758 225.617 144.477 225.477 144.227C225.336 143.977 225.104 143.747 224.781 143.539C224.458 143.331 224.026 143.138 223.484 142.961C222.828 142.758 222.26 142.51 221.781 142.219C221.307 141.927 220.94 141.565 220.68 141.133C220.424 140.701 220.297 140.177 220.297 139.562C220.297 138.922 220.435 138.37 220.711 137.906C220.987 137.443 221.378 137.086 221.883 136.836C222.388 136.586 222.982 136.461 223.664 136.461C224.195 136.461 224.669 136.542 225.086 136.703C225.503 136.859 225.854 137.094 226.141 137.406C226.432 137.719 226.654 138.102 226.805 138.555C226.961 139.008 227.039 139.531 227.039 140.125H225.602C225.602 139.776 225.56 139.456 225.477 139.164C225.393 138.872 225.268 138.62 225.102 138.406C224.935 138.188 224.732 138.021 224.492 137.906C224.253 137.786 223.977 137.727 223.664 137.727C223.227 137.727 222.865 137.802 222.578 137.953C222.297 138.104 222.089 138.318 221.953 138.594C221.818 138.865 221.75 139.18 221.75 139.539C221.75 139.872 221.818 140.164 221.953 140.414C222.089 140.664 222.318 140.891 222.641 141.094C222.969 141.292 223.419 141.487 223.992 141.68C224.664 141.893 225.234 142.146 225.703 142.438C226.172 142.724 226.529 143.078 226.773 143.5C227.018 143.917 227.141 144.435 227.141 145.055C227.141 145.727 226.99 146.294 226.688 146.758C226.385 147.216 225.961 147.565 225.414 147.805C224.867 148.044 224.227 148.164 223.492 148.164C223.049 148.164 222.612 148.104 222.18 147.984C221.747 147.865 221.357 147.669 221.008 147.398C220.659 147.122 220.38 146.76 220.172 146.312C219.964 145.859 219.859 145.305 219.859 144.648H221.312C221.312 145.091 221.375 145.458 221.5 145.75C221.63 146.036 221.802 146.266 222.016 146.438C222.229 146.604 222.464 146.724 222.719 146.797C222.979 146.865 223.237 146.898 223.492 146.898C223.961 146.898 224.357 146.826 224.68 146.68C225.008 146.529 225.258 146.315 225.43 146.039C225.602 145.763 225.688 145.44 225.688 145.07Z" fill="white"/>
<rect x="101" y="30" width="42" height="4" rx="2" fill="white"/>
<rect x="101" y="21" width="54" height="5" rx="2.5" fill="white"/>
<rect x="184" y="30" width="42" height="4" rx="2" fill="white"/>
<rect x="184" y="21" width="54" height="5" rx="2.5" fill="white"/>
<rect x="18" y="21" width="54" height="5" rx="2.5" fill="white"/>
</svg>
