<svg width="100%" height="100%" viewBox="0 0 40 40" fill="none" xmlns="http://www.w3.org/2000/svg">
<path d="M4.70605 16.4707L7.05902 40.0001H32.9414L35.2943 16.4707H4.70605ZM14.7061 35.8824H11.1767V20.5883H14.7061V35.8824ZM21.7649 35.8824H18.2354V20.5883H21.7649V35.8824ZM28.8237 35.8824H25.2943V20.5883H28.8237V35.8824Z" fill="#EF3F6F"/>
<path d="M30.5883 7.05883H26.4706V6.47062C26.4706 2.90273 23.5679 0 20 0C16.4322 0 13.5294 2.90273 13.5294 6.47062V7.05883H9.41177C5.91435 7.05883 3.01271 9.60297 2.45239 12.9412H37.5476C36.9873 9.60297 34.0857 7.05883 30.5883 7.05883ZM22.9412 7.05883H17.0589V6.47062C17.0589 4.84883 18.3783 3.52945 20 3.52945C21.6218 3.52945 22.9412 4.84883 22.9412 6.47062V7.05883Z" fill="#EF3F6F"/>
</svg>
